<svg width="77" height="79" viewBox="0 0 77 79" fill="none" xmlns="http://www.w3.org/2000/svg">
<rect width="77" height="77" rx="10" fill="#D9D9D9"/>
<rect x="0.5" y="0.5" width="76" height="76" rx="9.5" stroke="#0C0C0D" stroke-opacity="0.4"/>
<path opacity="0.5" d="M51.9637 28.6287H33.8317V47.6403L28.1485 54H18V23.8927L28.8927 13H59V21.5924L51.9637 28.6287Z" fill="#172821"/>
<path d="M16.7871 71.022C16.4355 71.022 16.2598 70.9268 16.2598 70.7363V62.2769C16.2598 62.1401 16.2915 62.0425 16.355 61.9839C16.4185 61.9204 16.5186 61.8887 16.6553 61.8887H20.7568C20.8496 61.8887 20.9155 61.9204 20.9546 61.9839C20.9937 62.0425 21.0132 62.1401 21.0132 62.2769V62.4893C21.0132 62.6211 20.9937 62.7188 20.9546 62.7822C20.9155 62.8457 20.8496 62.8774 20.7568 62.8774H17.4097V65.8438H20.5225C20.6104 65.8438 20.6763 65.8755 20.7202 65.939C20.7642 66.0024 20.7861 66.1025 20.7861 66.2393V66.437C20.7861 66.5737 20.7642 66.6738 20.7202 66.7373C20.6763 66.7959 20.6104 66.8252 20.5225 66.8252H17.4097V70.7363C17.4097 70.9268 17.2363 71.022 16.8896 71.022H16.7871ZM24.4116 71.0732C23.7476 71.0732 23.2104 70.9097 22.8003 70.5825C22.3901 70.2554 22.1851 69.7695 22.1851 69.125C22.1851 68.4463 22.3926 67.936 22.8076 67.5942C23.2227 67.2476 23.728 67.0254 24.3237 66.9277C24.9243 66.8252 25.6519 66.7666 26.5063 66.752V66.1367C26.5063 65.8096 26.394 65.5483 26.1694 65.353C25.9497 65.1528 25.5859 65.0527 25.0781 65.0527C24.6924 65.0527 24.353 65.0991 24.0601 65.1919C23.772 65.2798 23.501 65.3872 23.2471 65.5142C23.1396 65.5679 23.0737 65.5947 23.0493 65.5947C22.9907 65.5947 22.9248 65.5532 22.8516 65.4702C22.7832 65.3823 22.7222 65.2847 22.6685 65.1772C22.6196 65.0698 22.5952 64.9917 22.5952 64.9429C22.5952 64.8306 22.71 64.7085 22.9395 64.5767C23.1738 64.4448 23.479 64.335 23.855 64.2471C24.231 64.1592 24.624 64.1152 25.0342 64.1152C25.8496 64.1152 26.4819 64.2935 26.9312 64.6499C27.3804 65.0063 27.605 65.5068 27.605 66.1514V69.0737C27.605 69.6401 27.6294 70.0503 27.6782 70.3042C27.7319 70.5532 27.7588 70.6899 27.7588 70.7144C27.7588 70.8218 27.6758 70.8999 27.5098 70.9487C27.3486 70.9927 27.1973 71.0146 27.0557 71.0146C26.9385 71.0146 26.8506 70.9487 26.792 70.8169C26.7383 70.6851 26.6846 70.4946 26.6309 70.2456L26.6016 70.0991C26.333 70.397 26.0156 70.6338 25.6494 70.8096C25.2881 70.9854 24.8755 71.0732 24.4116 71.0732ZM24.4702 70.1284C24.8999 70.1284 25.2661 70.0503 25.5688 69.894C25.8716 69.7378 26.1841 69.5156 26.5063 69.2275V67.6895C25.8618 67.6943 25.332 67.7212 24.917 67.77C24.502 67.8188 24.1382 67.9434 23.8257 68.1436C23.5132 68.3389 23.3569 68.644 23.3569 69.0591C23.3569 69.4058 23.4497 69.6719 23.6353 69.8574C23.8257 70.0381 24.104 70.1284 24.4702 70.1284ZM32.5342 71.0732C31.4551 71.0732 30.6494 70.7974 30.1172 70.2456C29.5898 69.689 29.3262 68.7954 29.3262 67.5649C29.3262 66.3198 29.6216 65.4336 30.2124 64.9062C30.8032 64.3789 31.5381 64.1152 32.417 64.1152C32.7441 64.1152 33.0591 64.1445 33.3618 64.2031C33.6646 64.2568 33.9087 64.3301 34.0942 64.4229C34.2798 64.5156 34.3726 64.6133 34.3726 64.7158C34.3726 64.7842 34.3481 64.8745 34.2993 64.9868C34.2554 65.0991 34.1992 65.1992 34.1309 65.2871C34.0674 65.3701 34.0088 65.4116 33.9551 65.4116C33.9404 65.4116 33.9185 65.4067 33.8892 65.397C33.8599 65.3823 33.833 65.3701 33.8086 65.3604C33.3691 65.1553 32.8955 65.0527 32.3877 65.0527C31.7871 65.0527 31.3232 65.2505 30.9961 65.646C30.6689 66.0366 30.5054 66.6665 30.5054 67.5356C30.5054 68.1509 30.5713 68.6489 30.7031 69.0298C30.835 69.4058 31.0474 69.6841 31.3403 69.8647C31.6382 70.0454 32.0337 70.1357 32.5269 70.1357C33.0688 70.1357 33.5571 70.0234 33.9917 69.7988C34.0356 69.7891 34.0674 69.7793 34.0869 69.7695C34.1113 69.7549 34.1284 69.7476 34.1382 69.7476C34.1919 69.7476 34.2529 69.7891 34.3213 69.8721C34.3896 69.9551 34.4482 70.0503 34.4971 70.1577C34.5508 70.2651 34.5776 70.3506 34.5776 70.4141C34.5776 70.5166 34.4849 70.6191 34.2993 70.7217C34.1138 70.8242 33.8623 70.9097 33.5449 70.978C33.2324 71.0415 32.8955 71.0732 32.5342 71.0732ZM38.877 71.0732C37.7979 71.0732 36.9946 70.7925 36.4673 70.231C35.9448 69.6646 35.6836 68.8003 35.6836 67.6382C35.6836 66.4858 35.9399 65.6118 36.4526 65.0161C36.9653 64.4155 37.7197 64.1152 38.7158 64.1152C39.6045 64.1152 40.2734 64.4033 40.7227 64.9795C41.1768 65.5557 41.4038 66.4004 41.4038 67.5137C41.4038 67.5625 41.377 67.6309 41.3232 67.7188C41.2744 67.8018 41.2134 67.8774 41.1401 67.9458C41.0718 68.0093 41.0132 68.041 40.9644 68.041H36.8555C36.9092 68.7686 37.0947 69.3008 37.4121 69.6377C37.7344 69.9697 38.2178 70.1357 38.8623 70.1357C39.2236 70.1357 39.5337 70.0918 39.7925 70.0039C40.0562 69.916 40.3101 69.8086 40.5542 69.6816C40.5786 69.6719 40.6152 69.6548 40.6641 69.6304C40.7129 69.606 40.7471 69.5938 40.7666 69.5938C40.8203 69.5938 40.8813 69.6377 40.9497 69.7256C41.0229 69.8086 41.084 69.9038 41.1328 70.0112C41.1865 70.1138 41.2134 70.1895 41.2134 70.2383C41.2134 70.3457 41.106 70.4653 40.8911 70.5972C40.6763 70.729 40.3882 70.8413 40.0269 70.9341C39.6704 71.0269 39.2871 71.0732 38.877 71.0732ZM40.2393 67.1035C40.2393 65.7363 39.7192 65.0527 38.6792 65.0527C37.561 65.0527 36.9531 65.7363 36.8555 67.1035H40.2393ZM43.623 71.022C43.4424 71.022 43.3105 71 43.2275 70.9561C43.1494 70.9072 43.1104 70.834 43.1104 70.7363V62.2769C43.1104 62.1353 43.1396 62.0352 43.1982 61.9766C43.2617 61.918 43.3618 61.8887 43.4985 61.8887H46.1353C46.897 61.8887 47.5708 62.0718 48.1567 62.438C48.7476 62.7993 49.043 63.4658 49.043 64.4375C49.043 65.1602 48.8745 65.7217 48.5376 66.1221C48.2007 66.5176 47.8223 66.7837 47.4023 66.9204C46.9824 67.0522 46.604 67.1182 46.2671 67.1182H44.2456V70.7363C44.2456 70.834 44.2041 70.9072 44.1211 70.9561C44.0381 71 43.9087 71.022 43.7329 71.022H43.623ZM46.2817 66.1294C46.5015 66.1294 46.731 66.083 46.9702 65.9902C47.2095 65.8926 47.417 65.7192 47.5928 65.4702C47.7686 65.2163 47.8564 64.8721 47.8564 64.4375C47.8564 63.8564 47.6831 63.4512 47.3364 63.2217C46.9946 62.9922 46.582 62.8774 46.0986 62.8774H44.2456V66.1294H46.2817ZM52.2876 71.0732C51.6235 71.0732 51.0864 70.9097 50.6763 70.5825C50.2661 70.2554 50.061 69.7695 50.061 69.125C50.061 68.4463 50.2686 67.936 50.6836 67.5942C51.0986 67.2476 51.604 67.0254 52.1997 66.9277C52.8003 66.8252 53.5278 66.7666 54.3823 66.752V66.1367C54.3823 65.8096 54.27 65.5483 54.0454 65.353C53.8257 65.1528 53.4619 65.0527 52.9541 65.0527C52.5684 65.0527 52.229 65.0991 51.936 65.1919C51.6479 65.2798 51.377 65.3872 51.123 65.5142C51.0156 65.5679 50.9497 65.5947 50.9253 65.5947C50.8667 65.5947 50.8008 65.5532 50.7275 65.4702C50.6592 65.3823 50.5981 65.2847 50.5444 65.1772C50.4956 65.0698 50.4712 64.9917 50.4712 64.9429C50.4712 64.8306 50.5859 64.7085 50.8154 64.5767C51.0498 64.4448 51.355 64.335 51.731 64.2471C52.1069 64.1592 52.5 64.1152 52.9102 64.1152C53.7256 64.1152 54.3579 64.2935 54.8071 64.6499C55.2563 65.0063 55.481 65.5068 55.481 66.1514V69.0737C55.481 69.6401 55.5054 70.0503 55.5542 70.3042C55.6079 70.5532 55.6348 70.6899 55.6348 70.7144C55.6348 70.8218 55.5518 70.8999 55.3857 70.9487C55.2246 70.9927 55.0732 71.0146 54.9316 71.0146C54.8145 71.0146 54.7266 70.9487 54.668 70.8169C54.6143 70.6851 54.5605 70.4946 54.5068 70.2456L54.4775 70.0991C54.209 70.397 53.8916 70.6338 53.5254 70.8096C53.1641 70.9854 52.7515 71.0732 52.2876 71.0732ZM52.3462 70.1284C52.7759 70.1284 53.1421 70.0503 53.4448 69.894C53.7476 69.7378 54.0601 69.5156 54.3823 69.2275V67.6895C53.7378 67.6943 53.208 67.7212 52.793 67.77C52.3779 67.8188 52.0142 67.9434 51.7017 68.1436C51.3892 68.3389 51.2329 68.644 51.2329 69.0591C51.2329 69.4058 51.3257 69.6719 51.5112 69.8574C51.7017 70.0381 51.98 70.1284 52.3462 70.1284ZM60.4395 71.0732C59.3604 71.0732 58.5571 70.7925 58.0298 70.231C57.5073 69.6646 57.2461 68.8003 57.2461 67.6382C57.2461 66.4858 57.5024 65.6118 58.0151 65.0161C58.5278 64.4155 59.2822 64.1152 60.2783 64.1152C61.167 64.1152 61.8359 64.4033 62.2852 64.9795C62.7393 65.5557 62.9663 66.4004 62.9663 67.5137C62.9663 67.5625 62.9395 67.6309 62.8857 67.7188C62.8369 67.8018 62.7759 67.8774 62.7026 67.9458C62.6343 68.0093 62.5757 68.041 62.5269 68.041H58.418C58.4717 68.7686 58.6572 69.3008 58.9746 69.6377C59.2969 69.9697 59.7803 70.1357 60.4248 70.1357C60.7861 70.1357 61.0962 70.0918 61.355 70.0039C61.6187 69.916 61.8726 69.8086 62.1167 69.6816C62.1411 69.6719 62.1777 69.6548 62.2266 69.6304C62.2754 69.606 62.3096 69.5938 62.3291 69.5938C62.3828 69.5938 62.4438 69.6377 62.5122 69.7256C62.5854 69.8086 62.6465 69.9038 62.6953 70.0112C62.749 70.1138 62.7759 70.1895 62.7759 70.2383C62.7759 70.3457 62.6685 70.4653 62.4536 70.5972C62.2388 70.729 61.9507 70.8413 61.5894 70.9341C61.2329 71.0269 60.8496 71.0732 60.4395 71.0732ZM61.8018 67.1035C61.8018 65.7363 61.2817 65.0527 60.2417 65.0527C59.1235 65.0527 58.5156 65.7363 58.418 67.1035H61.8018Z" fill="#404242"/>
</svg>
